# xmcd
# 
# Track frame offsets:
#     150
#     10694
#     23573
#     34390
#     45172
#     59042
#     70710
#     83541
#     95973
#     105958
#     117320
#     130701
#     143941
#     158640
#     175493
#     186729
#     199398
#     212749
#     225477
#     236934
#     252371
#     263639
#     276599
#     288950
#     302392
#     320910
# 
# Disc length: 4495
# 
# Revision: 3
# Processed by: cddbd v1.5.2PL0 Copyright (c) Steve Scherf et al.
# Submitted via: fre:ac v1.0.17
# 
DISCID=7c118d1a
DTITLE=Various Artist - The Most Romantic Country Hits [CD 3)
DYEAR=0
DGENRE=Country
TTITLE0=Roger Miller - Release Me
TTITLE1=Brenda Lee - Too Many Rivers
TTITLE2=Ferlin Husky - Gone
TTITLE3=Charlie Rich - There Won't Be Anymore
TTITLE4=Don Williams - Crying In The Rain
TTITLE5=Caroll Jones - Don't It Make My Brown Eyes Blue
TTITLE6=Kenny Rogers - As Time Goes By
TTITLE7=B.J. Thomas - I Can't Help It (If I'm Still In Love With You)
TTITLE8=Brent Anderson - He'll Have To Go
TTITLE9=Don Gibson - Sea Of Heartbreak
TTITLE10=Lee Greenwood - Hearts Aren't Made To Break (They're Made To Love)
TTITLE11=Conway Twitty - After All The Good Is Gone
TTITLE12=Todd McCain - He Stopped Loving Her Today
TTITLE13=Kenny Rogers - Stardust
TTITLE14=Gene Martin - Miss The Mississippi And You
TTITLE15=Roger Miller - The Last Word In Lonesome Is 'Me'
TTITLE16=John Baker - Take These Chains From My Heart
TTITLE17=Merle Haggard - The Emptiest Arms In The World
TTITLE18=Brenda Lee - Losing You
TTITLE19=Roy Clark - Somewhere Between Love And Tomorrow 
TTITLE20=Ray Price - Crazy Arms
TTITLE21=Billie Rose - Jealous Heart
TTITLE22=Brenda Lee - Emotions
TTITLE23=Mickey Gilley - True Love Ways
TTITLE24=John Denver - Tenderly Calling
TTITLE25=Brenda Lee - You Can Depend On Me
EXTD=
EXTT0=
EXTT1=
EXTT2=
EXTT3=
EXTT4=
EXTT5=
EXTT6=
EXTT7=
EXTT8=
EXTT9=
EXTT10=
EXTT11=
EXTT12=
EXTT13=
EXTT14=
EXTT15=
EXTT16=
EXTT17=
EXTT18=
EXTT19=
EXTT20=
EXTT21=
EXTT22=
EXTT23=
EXTT24=
EXTT25=
PLAYORDER=
